
<svg width="48" 
    height="48" version="1.1" xmlns="http://www.w3.org/2000/svg" xmlns:xlink="http://www.w3.org/1999/xlink">
<defs>

<style type="text/css"><![CDATA[
.g1_1{
fill: #5F02BC;
}
]]></style>

</defs>
<path width="48" 
    height="48" xmlns="http://www.w3.org/2000/svg" fill-rule="evenodd" d="M478.5,305.6c-1.4,0.1,-2.9,0.1,-4.3,0.1c-2.6,0,-5.1,-0.1,-7.5,-0.2c-1.2,-0.1,-1.1,-0.1,-2,-0.1c-67.1,-4.9,-120,-60.9,-120,-129.2c0,-31.6,11.3,-60.7,30.2,-83.1c0.7,-0.8,1.3,-1.6,2,-2.3C388,78.1,401.6,67.6,417,60c17.2,-8.2,36.3,-12.5,55.3,-13.2c0.6,-0.1,1.2,-0.1,1.9,-0.1c0.3,0,0.6,0,0.9,0c2.1,0.1,-1,0,1.8,0.1c0.6,0,1.2,0,1.9,0c22.8,1.6,45.5,8,64.7,20.5c12.9,8.3,24.4,18.7,33.5,31c4.4,6,9.3,12,12,19c-19.1,6.2,-38.9,12.3,-58.4,17.5c-13.6,3,-27.2,6.1,-41.2,6.4c-7.6,-0.3,-17.1,-0.5,-21.3,-8.1c-2,-6,0.5,-11.9,2.9,-17.2c-6.3,7.9,-13.1,16.7,-13.7,27.3c0.1,3.8,1.7,8.2,5.4,9.9c8.2,4.4,17.9,4.1,26.9,3.5c17.6,-1.2,34.5,-6,51.5,-10.1c18.2,-4.8,36.1,-10.8,54,-16.5c0.3,1.4,0.9,2.6,1.5,3.9c0.3,1,0.6,1.9,0.9,2.8c-20.6,7.7,-43,13.5,-64.1,19.7c-21.3,5.3,-43,10.8,-65.2,10c-5,-0.4,-10.1,-1.3,-14.4,-3.8c-3.4,-1.9,-5.8,-5.5,-6.1,-9.4c-0.4,-7.1,3.4,-13.5,6.3,-19.7c-7.3,8.9,-14.4,18.6,-17.6,29.9c-1.6,5.4,-0.9,12.1,3.5,16c4.5,3.2,9.9,5,15.3,5.5c12.8,1.9,25.7,-0.2,38.3,-2.1c14.3,-2.2,28.1,-6.3,42.1,-9.5c22,-5.9,44.2,-12.9,65.6,-20.8c0.4,2.4,0.8,4.3,1.2,6.7c-8.9,3.7,-18.5,7.5,-27.8,10.2c-16.1,5.3,-32.4,10.3,-48.8,14.7c-9.4,3.1,-19.2,4.9,-28.8,7.1c-18.2,3.3,-36.9,7.1,-55.4,4.2c-6.2,-1.5,-13,-4.3,-15.6,-10.5c-3.3,-9.1,1.9,-17.8,5.6,-25.8c-6.6,6.9,-11.9,15,-16.1,23.6c-3.8,7.6,-6.8,17.3,-2.4,25.4c5.1,8,15.4,9.4,24.1,10.3c20.2,1.1,40.2,-2.4,59.9,-6.6c14.5,-3.7,29.1,-6.6,43.3,-11.3c10.6,-3.2,21.1,-6.4,31.7,-9.6c10.5,-2.8,20.5,-7.2,31,-10.1c0.1,2.5,0.1,4.4,0,5.8c-0.3,2.4,-0.5,2.9,-0.7,3c-19.1,6.3,-40.2,13.3,-59.5,18.9c-29.8,8.7,-60,17,-91,20.3c-12.7,1.1,-26.1,2.1,-38.3,-2.4c-5.9,-2,-11.4,-6.9,-12.1,-13.4c-1.6,-10,3.6,-18.9,8,-27.4c-8.8,9.4,-15.8,20.3,-21.2,31.8c-2.9,6.4,-4.1,13.5,-3.1,20.4c0.8,3.4,2,6.9,5,9c7.5,6.9,18.3,7.9,27.9,8.6c26.3,1.2,52.2,-4.7,77.6,-10.3c14.5,-4,29.2,-7.2,43.6,-11.6C558.7,228,578.7,221,597.8,214.6c-5.9,19.3,-16.3,36.6,-29.9,50.9c-15.7,16.3,-35.7,28.7,-57.3,34.8c-7.8,2.4,-15.9,3.6,-23.9,4.8c-1.6,0.1,-3.3,0.3,-4.9,0.4c-3.1,0.2,0.1,0,-3.3,0.1Z" class="g1_1"/>
</svg>