<svg x="0" y="0" width="1286" height="433" viewBox="0 0 1286 433" version="1.1" xmlns="http://www.w3.org/2000/svg" xmlns:xlink="http://www.w3.org/1999/xlink" style="display: block;margin-left: auto;margin-right: auto;">
<defs>

<style type="text/css"><![CDATA[

.g1_1{
fill: #5F02BC;
}


]]></style>

</defs>
<path fill-rule="evenodd" d="M197.3,359.9c-1.6,0.1,-3.2,0.1,-4.8,0.1c-2.7,0,-5.4,-0.1,-8,-0.2c-1.3,-0.1,-1.1,-0.1,-2.1,-0.2C110,354.4,52.9,294,52.9,220.3c0,-34.1,12.2,-65.4,32.6,-89.7c0.7,-0.8,1.4,-1.6,2.1,-2.4c12,-13.7,26.7,-25.1,43.3,-33.2C149.4,86.1,170,81.5,190.6,80.7c0.6,0,1.3,0,1.9,0c0.4,0,0.7,0,1,0c2.3,0,-1,-0.1,2,0c0.7,0,1.4,0,2,0.1c24.6,1.6,49.1,8.5,69.9,22.1c13.9,8.9,26.3,20.2,36.1,33.4c4.7,6.5,10,12.9,13,20.4c-20.7,6.7,-42,13.3,-63,18.9c-14.7,3.2,-29.4,6.6,-44.5,6.9c-8.2,-0.3,-18.5,-0.5,-23,-8.7c-2.2,-6.4,0.6,-12.8,3.2,-18.6c-6.9,8.6,-14.2,18.1,-14.8,29.5c0.1,4.2,1.8,8.8,5.8,10.7c8.8,4.8,19.3,4.4,29.1,3.7c18.8,-1.2,37.1,-6.4,55.4,-10.8c19.7,-5.2,39,-11.7,58.3,-17.8c0.3,1.4,1,2.8,1.6,4.2c0.3,1,0.7,2,1,3C303.3,186,279.3,192.3,256.5,199c-23.1,5.6,-46.4,11.6,-70.4,10.8c-5.4,-0.4,-10.8,-1.5,-15.5,-4.2c-3.7,-2,-6.3,-5.9,-6.6,-10.1c-0.5,-7.7,3.7,-14.5,6.8,-21.3c-7.9,9.7,-15.5,20.1,-19,32.3c-1.7,5.9,-0.9,13.1,3.8,17.3c4.9,3.4,10.6,5.4,16.5,5.9c13.8,2,27.7,-0.2,41.4,-2.3c15.3,-2.3,30.2,-6.7,45.3,-10.2c23.7,-6.4,47.8,-13.9,70.8,-22.4c0.4,2.5,0.8,4.6,1.3,7.2c-9.6,3.9,-20,8.1,-30,11c-17.4,5.7,-34.9,11.1,-52.7,15.9c-10.1,3.3,-20.6,5.2,-31,7.6c-19.6,3.6,-39.8,7.6,-59.8,4.5c-6.6,-1.5,-14,-4.7,-16.8,-11.3c-3.5,-9.8,2.1,-19.2,6.1,-27.8c-7.1,7.4,-12.8,16.2,-17.4,25.4c-4.1,8.2,-7.3,18.7,-2.6,27.4c5.5,8.6,16.7,10.2,26,11.2c21.7,1.1,43.4,-2.7,64.6,-7.2c15.6,-3.9,31.4,-7.1,46.7,-12.2c11.4,-3.4,22.8,-6.9,34.2,-10.3c11.3,-3.1,22.1,-7.8,33.5,-10.9c0.1,2.7,0.1,4.7,-0.1,6.2c-0.2,2.6,-0.5,3.2,-0.7,3.3c-20.6,6.8,-43.4,14.3,-64.2,20.4C234.5,264.6,202,273.5,168.5,277c-13.7,1.2,-28.1,2.4,-41.3,-2.5c-6.3,-2.2,-12.3,-7.5,-13,-14.5c-1.8,-10.8,3.8,-20.4,8.6,-29.5c-9.4,10.1,-17,21.8,-22.8,34.3c-3.2,6.8,-4.5,14.5,-3.4,22c0.8,3.6,2.2,7.4,5.4,9.7c8.1,7.4,19.7,8.5,30.1,9.2c28.3,1.4,56.3,-5,83.7,-11.1c15.7,-4.3,31.5,-7.8,47,-12.5c20.9,-5.9,42.6,-13.4,63.2,-20.3c-6.5,20.8,-17.7,39.5,-32.3,54.8c-17,17.6,-38.5,31,-61.8,37.6c-8.4,2.6,-17.1,3.8,-25.8,5.2c-1.8,0.1,-3.5,0.3,-5.3,0.4c-3.4,0.2,0.1,0,-3.5,0.1Z" class="g1_1"/>
<path d="M469.5,265.6c0,3.8,3.3,6.9,7.1,6.9l13.9,0c4,0,7.2,-3.3,7.2,-7.1l0,-93.1c0,-3.9,-3.2,-7,-7.2,-7l-13.9,0c-3.8,0,-7.1,3.1,-7.1,7l0,33.7l-51.4,0l0,-33.7c0,-3.9,-3.2,-7,-7,-7l-14,0c-3.9,0,-7.2,3.1,-7.2,7l0,93.1c0,3.8,3.3,7.1,7.2,7.1l14,0c3.8,0,7,-3.1,7,-6.9l0,-38.5l51.4,0Z" class="g1_1"/>
<path d="M544.1,257c-8,0,-12.1,-4,-12.1,-9.3c0,-5.1,4.1,-9.1,11.3,-9.1l23,0l0,11.7c-5.4,3.3,-13,6.7,-22.2,6.7M551,206c10.2,0,15.3,3.7,15.3,15.6l-24.8,0c-20.1,0,-35.4,8.8,-35.4,26.1c0,17.3,15.3,26.3,35.4,26.3c11.8,0,20.2,-3.5,27.1,-8.4l0,2.3c0,2.6,2,4.6,4.6,4.6l14.4,0c2.6,0,4.5,-2,4.5,-4.6l0,-46.3C592.1,198.2,574.9,189,552.8,189c-24.8,0,-40.7,5.5,-40.7,21.5c0,2.6,2,4.5,4.6,4.5l11.2,0c3.8,0,6.5,-1.5,8.5,-3.9C539,207.9,544.7,206,551,206Z" class="g1_1"/>
<path d="M624.9,272.5c2.6,0,4.6,-2,4.6,-4.6l0,-98c0,-2.6,-2,-4.6,-4.6,-4.6l-16.7,0c-2.6,0,-4.6,2,-4.6,4.6l0,98c0,2.6,2,4.6,4.6,4.6Z" class="g1_1"/>
<path d="M662.3,272.5c2.6,0,4.5,-2,4.5,-4.6l0,-98c0,-2.6,-1.9,-4.6,-4.5,-4.6l-16.7,0c-2.6,0,-4.6,2,-4.6,4.6l0,98c0,2.6,2,4.6,4.6,4.6Z" class="g1_1"/>
<path d="M699.9,272.5c2.6,0,4.6,-2,4.6,-4.6l0,-70.9c0,-2.6,-2,-4.6,-4.6,-4.6l-16.7,0c-2.6,0,-4.6,2,-4.6,4.6l0,70.9c0,2.6,2,4.6,4.6,4.6ZM678.3,174.9c0,5.4,3.2,8.6,8.6,8.6l9.3,0c5.4,0,8.6,-3.2,8.6,-8.6l0,-2.6c0,-5.3,-3.2,-8.5,-8.6,-8.5l-9.3,0c-5.4,0,-8.6,3.2,-8.6,8.5Z" class="g1_1"/>
<path d="M776.4,267.9c0,2.6,2,4.6,4.6,4.6l16.7,0c2.6,0,4.6,-2,4.6,-4.6l0,-42.9c0,-25.4,-14.1,-36,-34,-36c-11.4,0,-19.1,4.9,-26.1,10.9l0,-4.7c0,-2.7,-2,-4.6,-4.6,-4.6l-16.7,0c-2.6,0,-4.6,1.9,-4.6,4.6l0,72.7c0,2.6,2,4.6,4.6,4.6l16.7,0c2.6,0,4.6,-2,4.6,-4.6l0,-50.1c5.5,-5.5,12.5,-10.7,20,-10.7c8.4,0,14.2,5.2,14.2,17.9Z" class="g1_1"/>
<path d="M809.2,227.9c0,23.9,15.5,38.3,37.8,38.3c9.7,0,16.4,-1.6,22.4,-3.1l0,3.5c0,12,-5.1,15.6,-16.9,15.6c-7.8,0,-13.5,-1.8,-16.1,-5c-1.9,-2.5,-4.7,-4,-8.5,-4l-11.2,0c-2.6,0,-4.6,2,-4.6,4.6c0,15.9,15.9,21.4,42.3,21.4c23.5,0,40.8,-9.1,40.8,-32.6l0,-69.2C887.3,192.9,869.7,189,855.1,189c-29.8,0,-45.9,14.4,-45.9,38.9m26.6,0c0,-13.3,5.1,-20.8,17.8,-20.8c6.3,0,12.2,0.8,15.8,1.7l0,37c-6,1.5,-12,2.3,-16.3,2.3c-12.2,0,-17.3,-7.5,-17.3,-20.2Z" class="g1_1"/>
<path d="M946,255.9c-12.2,0,-17.3,-7.5,-17.3,-24.3c0,-17,5.1,-24.5,18.9,-24.5c3.8,0,9.9,1.1,16.2,3.1l0,39c-5.4,3.4,-12.2,6.7,-17.8,6.7M939.9,274c10.9,0,19.3,-3.5,26.2,-8.4l0,2.3c0,2.6,2,4.6,4.6,4.6l14.4,0c2.6,0,4.6,-2,4.6,-4.6l0,-98c0,-2.6,-2,-4.6,-4.6,-4.6l-16.7,0c-2.6,0,-4.6,2,-4.6,4.6l0,23c-6.3,-2,-12.4,-3.9,-21.6,-3.9c-23.9,0,-40.1,14.4,-40.1,42.6c0,28,16.1,42.4,37.8,42.4Z" class="g1_1"/>
<path d="M1034.5,257c-7.9,0,-12.1,-4,-12.1,-9.3c0,-5.1,4.2,-9.1,11.4,-9.1l22.9,0l0,11.7c-5.3,3.3,-13,6.7,-22.2,6.7m6.9,-51c10.3,0,15.3,3.7,15.3,15.6l-24.8,0c-20,0,-35.3,8.8,-35.3,26.1c0,17.3,15.3,26.3,35.3,26.3c11.8,0,20.2,-3.5,27.1,-8.4l0,2.3c0,2.6,2,4.6,4.6,4.6l14.4,0c2.6,0,4.6,-2,4.6,-4.6l0,-46.3c0,-23.4,-17.3,-32.6,-39.4,-32.6c-24.8,0,-40.7,5.5,-40.7,21.5c0,2.6,2,4.5,4.6,4.5l11.2,0c3.8,0,6.6,-1.5,8.6,-3.9c2.6,-3.2,8.2,-5.1,14.5,-5.1Z" class="g1_1"/>
<path d="M1146.1,272.5c2.6,-0.5,4.6,-2.3,4.6,-4.6l0,-8c0,-2.6,-2,-4.6,-4.6,-4.6l-2.7,0c-3.4,0,-6.3,0.9,-10.3,0.9c-7.8,0,-13.2,-5.5,-13.2,-15.9l0,-27.4l20.9,0c2.6,0,4.5,-2,4.5,-4.6l0,-8.9c0,-2.6,-1.9,-4.6,-4.5,-4.6l-20.9,0l0,-24.9c0,-2.6,-2,-4.6,-4.6,-4.6l-16.6,0c-2.6,0,-4.6,2,-4.6,4.6l0,70.4c0,23,10.7,33.7,32.1,33.7c6.9,0,15.3,-0.6,19.9,-1.5Z" class="g1_1"/>
<path d="M1192.5,257c-8,0,-12.1,-4,-12.1,-9.3c0,-5.1,4.1,-9.1,11.3,-9.1l23,0l0,11.7c-5.4,3.3,-13,6.7,-22.2,6.7m6.9,-51c10.2,0,15.3,3.7,15.3,15.6l-24.8,0c-20.1,0,-35.4,8.8,-35.4,26.1c0,17.3,15.3,26.3,35.4,26.3c11.8,0,20.2,-3.5,27.1,-8.4l0,2.3c0,2.6,2,4.6,4.6,4.6l14.4,0c2.6,0,4.6,-2,4.6,-4.6l0,-46.3c0,-23.4,-17.3,-32.6,-39.4,-32.6c-24.8,0,-40.7,5.5,-40.7,21.5c0,2.6,2,4.5,4.6,4.5l11.2,0c3.8,0,6.5,-1.5,8.5,-3.9c2.6,-3.2,8.3,-5.1,14.6,-5.1Z" class="g1_1"/>

</svg>