<svg x="0" y="0" width="1286" height="433" viewBox="0 0 1286 433" version="1.1" xmlns="http://www.w3.org/2000/svg" xmlns:xlink="http://www.w3.org/1999/xlink" style="display: block;margin-left: auto;margin-right: auto;">
<defs>

<style type="text/css"><![CDATA[

.g1_1{
fill: #4D4D4D;
}


]]></style>

</defs>
<path fill-rule="evenodd" d="M182.1,358.8c-1.6,0,-3.2,0.1,-4.8,0.1c-2.8,0,-5.5,-0.1,-8.3,-0.3c-1.2,0,-1.1,0,-2.1,-0.1c-73.8,-5.3,-132,-66.8,-132,-142c0,-34.8,12.5,-66.7,33.3,-91.4c0.7,-0.8,1.4,-1.7,2.1,-2.5c12.3,-14,27.3,-25.5,44.1,-33.8C133.3,79.7,154.3,75,175.3,74.2c0.6,0,1.3,0,2,0c0.3,0,0.6,0,1,0c2.3,0,-1,0,2,0c0.7,0,1.4,0.1,2,0.1c25.1,1.7,50.1,8.7,71.2,22.5c14.2,9.1,26.8,20.6,36.8,34.1c4.9,6.6,10.3,13.2,13.3,20.8c-21.1,6.9,-42.9,13.5,-64.3,19.3c-14.9,3.3,-29.9,6.7,-45.3,7c-8.3,-0.3,-18.8,-0.5,-23.4,-8.9c-2.2,-6.5,0.6,-13,3.2,-18.9c-6.9,8.7,-14.4,18.4,-15,30c0,4.3,1.8,9,5.8,10.9c9.1,4.9,19.8,4.5,29.7,3.8c19.2,-1.3,37.9,-6.5,56.5,-11c20,-5.3,39.7,-11.9,59.4,-18.2c0.3,1.5,1,2.9,1.6,4.4c0.4,1,0.7,2,1.1,3c-22.7,8.5,-47.3,14.8,-70.5,21.7c-23.5,5.7,-47.3,11.8,-71.7,11c-5.5,-0.4,-11,-1.5,-15.9,-4.3c-3.6,-2,-6.3,-6,-6.6,-10.2c-0.5,-7.9,3.7,-14.9,6.9,-21.8c-8,9.9,-15.8,20.5,-19.3,33c-1.8,5.9,-1,13.3,3.9,17.6c4.9,3.5,10.8,5.5,16.7,6c14.1,2,28.3,-0.2,42.2,-2.4c15.6,-2.3,30.8,-6.8,46.2,-10.4c24.2,-6.5,48.7,-14.1,72.1,-22.8c0.5,2.6,0.9,4.7,1.4,7.3c-9.9,4,-20.4,8.3,-30.6,11.3C270,214.9,252.1,220.4,234,225.2c-10.3,3.4,-21,5.4,-31.6,7.8c-20,3.6,-40.6,7.8,-61,4.6c-6.7,-1.6,-14.2,-4.8,-17,-11.6c-3.7,-9.9,2,-19.5,6.1,-28.3c-7.2,7.6,-13,16.5,-17.7,25.9c-4.2,8.4,-7.4,19.1,-2.6,27.9c5.6,8.8,16.9,10.5,26.4,11.4c22.2,1.2,44.3,-2.7,65.9,-7.3c15.9,-4,32,-7.2,47.6,-12.3c11.6,-3.6,23.2,-7.1,34.8,-10.6c11.6,-3.1,22.6,-8,34.1,-11.1c0.1,2.7,0.1,4.8,0,6.3c-0.3,2.7,-0.5,3.3,-0.7,3.3c-21,7,-44.2,14.6,-65.4,20.9c-32.9,9.5,-66,18.6,-100.1,22.2c-14,1.2,-28.6,2.4,-42.1,-2.6C104.2,269.5,98.1,264.1,97.4,257c-1.8,-11,3.9,-20.8,8.8,-30.1c-9.6,10.3,-17.3,22.2,-23.3,35c-3.2,6.9,-4.5,14.7,-3.4,22.4c0.8,3.7,2.2,7.6,5.5,9.8c8.2,7.6,20,8.8,30.7,9.4C144.5,305,173,298.4,201,292.3c15.9,-4.4,32.1,-8,47.9,-12.8c21.3,-6.1,43.3,-13.7,64.3,-20.7c-6.5,21.1,-17.9,40.2,-32.8,55.9c-17.4,17.9,-39.3,31.5,-63,38.2c-8.6,2.7,-17.5,4,-26.3,5.3c-1.8,0.2,-3.6,0.3,-5.4,0.4c-3.5,0.2,0,0.1,-3.6,0.2Z" class="g1_1"/>
<path d="M459.6,262.6c0,3.9,3.2,7.1,7.1,7.1l14.2,0c4.1,0,7.4,-3.3,7.4,-7.2l0,-94.9c0,-4,-3.3,-7.1,-7.4,-7.1l-14.2,0c-3.9,0,-7.1,3.1,-7.1,7.1l0,34.3l-52.5,0l0,-34.3c0,-4,-3.2,-7.1,-7.1,-7.1l-14.2,0c-4.1,0,-7.4,3.1,-7.4,7.1l0,94.9c0,3.9,3.3,7.2,7.4,7.2l14.2,0c3.9,0,7.1,-3.2,7.1,-7.1l0,-39.1l52.5,0Z" class="g1_1"/>
<path d="M535.5,253.9c-8.1,0,-12.3,-4.1,-12.3,-9.5c0,-5.2,4.2,-9.2,11.5,-9.2l23.4,0l0,11.8c-5.4,3.5,-13.2,6.9,-22.6,6.9m7,-52c10.5,0,15.6,3.8,15.6,16l-25.2,0c-20.5,0,-36.1,8.9,-36.1,26.5c0,17.6,15.6,26.8,36.1,26.8c12,0,20.6,-3.6,27.6,-8.6l0,2.4c0,2.6,2,4.7,4.7,4.7l14.6,0c2.7,0,4.7,-2.1,4.7,-4.7l0,-47.1c0,-23.9,-17.6,-33.3,-40.1,-33.3c-25.3,0,-41.5,5.6,-41.5,21.9c0,2.6,2,4.7,4.7,4.7l11.4,0c3.9,0,6.7,-1.6,8.7,-4.1c2.7,-3.3,8.4,-5.2,14.8,-5.2Z" class="g1_1"/>
<path d="M617.9,269.7c2.6,0,4.7,-2.1,4.7,-4.7l0,-99.9c0,-2.6,-2.1,-4.6,-4.7,-4.6l-17,0c-2.7,0,-4.7,2,-4.7,4.6l0,99.9c0,2.6,2,4.7,4.7,4.7Z" class="g1_1"/>
<path d="M656,269.7c2.6,0,4.6,-2.1,4.6,-4.7l0,-99.9c0,-2.6,-2,-4.6,-4.6,-4.6l-17.1,0c-2.6,0,-4.6,2,-4.6,4.6l0,99.9c0,2.6,2,4.7,4.6,4.7Z" class="g1_1"/>
<path d="M694.3,269.7c2.7,0,4.7,-2.1,4.7,-4.7l0,-72.3c0,-2.6,-2,-4.6,-4.7,-4.6l-17,0c-2.6,0,-4.7,2,-4.7,4.6l0,72.3c0,2.6,2.1,4.7,4.7,4.7Zm-22,-99.4c0,5.4,3.3,8.7,8.8,8.7l9.5,0c5.4,0,8.7,-3.3,8.7,-8.7l0,-2.7c0,-5.4,-3.3,-8.7,-8.7,-8.7l-9.5,0c-5.5,0,-8.8,3.3,-8.8,8.7Z" class="g1_1"/>
<path d="M772.3,265c0,2.6,2.1,4.7,4.7,4.7l17,0c2.7,0,4.7,-2.1,4.7,-4.7l0,-43.7c0,-25.9,-14.4,-36.7,-34.6,-36.7c-11.7,0,-19.5,5,-26.7,11.1l0,-4.8c0,-2.7,-2,-4.7,-4.7,-4.7l-17,0c-2.7,0,-4.7,2,-4.7,4.7l0,74.1c0,2.6,2,4.7,4.7,4.7l17,0c2.7,0,4.7,-2.1,4.7,-4.7l0,-51c5.6,-5.7,12.8,-11,20.4,-11c8.6,0,14.5,5.3,14.5,18.3Z" class="g1_1"/>
<path d="M805.7,224.3c0,24.3,15.8,39,38.5,39c9.9,0,16.7,-1.6,22.8,-3.2l0,3.6c0,12.2,-5.1,15.9,-17.1,15.9c-8,0,-13.8,-1.8,-16.4,-5.1c-2.1,-2.5,-4.9,-4.1,-8.8,-4.1l-11.3,0c-2.7,0,-4.7,2.1,-4.7,4.7c0,16.2,16.2,21.9,43,21.9c24.1,0,41.7,-9.4,41.7,-33.3l0,-70.5c-8.1,-4.7,-26.1,-8.6,-40.9,-8.6c-30.4,0,-46.8,14.7,-46.8,39.7m27.2,0c0,-13.6,5.1,-21.3,18,-21.3c6.4,0,12.5,0.8,16.1,1.8l0,37.7c-6.1,1.6,-12.2,2.3,-16.5,2.3c-12.5,0,-17.6,-7.6,-17.6,-20.5Z" class="g1_1"/>
<path d="M945.2,252.8c-12.5,0,-17.7,-7.6,-17.7,-24.8c0,-17.3,5.2,-25,19.2,-25c3.9,0,10.2,1.1,16.6,3.2l0,39.7c-5.5,3.5,-12.5,6.9,-18.1,6.9m-6.3,18.4c11.1,0,19.7,-3.6,26.7,-8.6l0,2.4c0,2.6,2,4.7,4.7,4.7l14.7,0c2.6,0,4.6,-2.1,4.6,-4.7l0,-99.9c0,-2.6,-2,-4.6,-4.6,-4.6l-17.1,0c-2.6,0,-4.6,2,-4.6,4.6l0,23.4c-6.4,-2,-12.7,-3.9,-22,-3.9c-24.4,0,-40.9,14.7,-40.9,43.4c0,28.5,16.4,43.2,38.5,43.2Z" class="g1_1"/>
<path d="M1035.3,253.9c-8.1,0,-12.3,-4.1,-12.3,-9.5c0,-5.2,4.2,-9.2,11.6,-9.2l23.4,0l0,11.8c-5.5,3.5,-13.3,6.9,-22.7,6.9m7.1,-52c10.4,0,15.6,3.8,15.6,16l-25.3,0c-20.4,0,-36,8.9,-36,26.5c0,17.6,15.6,26.8,36,26.8c12,0,20.6,-3.6,27.6,-8.6l0,2.4c0,2.6,2,4.7,4.7,4.7l14.6,0c2.7,0,4.7,-2.1,4.7,-4.7l0,-47.1c0,-23.9,-17.6,-33.3,-40.1,-33.3c-25.2,0,-41.5,5.6,-41.5,21.9c0,2.6,2.1,4.7,4.7,4.7l11.4,0c3.9,0,6.7,-1.6,8.7,-4.1c2.7,-3.3,8.5,-5.2,14.9,-5.2Z" class="g1_1"/>
<path d="M1149.1,269.7c2.6,-0.5,4.6,-2.4,4.6,-4.7l0,-8.1c0,-2.7,-2,-4.7,-4.6,-4.7l-2.8,0c-3.5,0,-6.4,0.9,-10.5,0.9c-8,0,-13.4,-5.6,-13.4,-16.2l0,-27.9l21.2,0c2.7,0,4.7,-2.1,4.7,-4.7l0,-9.1c0,-2.6,-2,-4.6,-4.7,-4.6l-21.2,0l0,-25.5c0,-2.6,-2,-4.6,-4.7,-4.6l-17,0c-2.6,0,-4.7,2,-4.7,4.6l0,71.8c0,23.4,10.9,34.3,32.8,34.3c7,0,15.6,-0.6,20.3,-1.5Z" class="g1_1"/>
<path d="M1196.3,253.9c-8.1,0,-12.3,-4.1,-12.3,-9.5c0,-5.2,4.2,-9.2,11.5,-9.2l23.4,0l0,11.8c-5.4,3.5,-13.2,6.9,-22.6,6.9m7,-52c10.5,0,15.6,3.8,15.6,16l-25.2,0c-20.5,0,-36.1,8.9,-36.1,26.5c0,17.6,15.6,26.8,36.1,26.8c12,0,20.6,-3.6,27.6,-8.6l0,2.4c0,2.6,2,4.7,4.7,4.7l14.6,0c2.7,0,4.7,-2.1,4.7,-4.7l0,-47.1c0,-23.9,-17.6,-33.3,-40.1,-33.3c-25.3,0,-41.5,5.6,-41.5,21.9c0,2.6,2.1,4.7,4.7,4.7l11.4,0c3.9,0,6.7,-1.6,8.7,-4.1c2.7,-3.3,8.5,-5.2,14.8,-5.2Z" class="g1_1"/>

</svg>