<svg xmlns="http://www.w3.org/2000/svg">
<defs>

<style type="text/css"><![CDATA[

.g1_1{
fill: #404040;
}


]]></style>

</defs>
<path fill-rule="evenodd" d="M478,311.2c-1.4,0,-2.9,0,-4.3,0c-2.5,0,-5,0,-7.4,-0.2c-1.1,0,-1,0,-1.9,-0.1C398,306.1,345.6,250.8,345.6,183.2c0,-31.3,11.3,-60,30,-82.3c0.6,-0.7,1.2,-1.5,1.9,-2.2C388.5,86.1,402,75.8,417.1,68.3C434.2,60.1,453,55.9,471.9,55.2c0.6,0,1.2,-0.1,1.8,-0.1c0.3,0,0.6,0.1,0.9,0.1c2.1,0,-0.9,-0.1,1.8,0c0.6,0,1.2,0,1.9,0c22.5,1.5,45,7.9,64,20.3c12.7,8.2,24.1,18.5,33.1,30.7c4.3,5.9,9.2,11.8,11.9,18.7c-19,6.1,-38.5,12.1,-57.8,17.3c-13.4,3,-26.9,6,-40.7,6.3c-7.5,-0.3,-17,-0.4,-21.1,-8c-2,-5.9,0.6,-11.7,2.9,-17c-6.3,7.9,-13,16.5,-13.5,27c0,3.8,1.6,8.1,5.2,9.8c8.2,4.4,17.8,4.1,26.7,3.5c17.3,-1.2,34.1,-5.9,50.9,-10c18,-4.8,35.7,-10.7,53.4,-16.3c0.3,1.3,0.9,2.6,1.5,3.9c0.3,0.9,0.6,1.8,0.9,2.7c-20.4,7.6,-42.5,13.4,-63.4,19.5c-21.1,5.2,-42.6,10.7,-64.5,9.9c-4.9,-0.4,-10,-1.3,-14.3,-3.8c-3.3,-1.9,-5.7,-5.5,-5.9,-9.2c-0.5,-7.1,3.3,-13.4,6.2,-19.6c-7.3,8.9,-14.2,18.5,-17.4,29.6c-1.6,5.4,-0.9,12,3.5,15.9c4.4,3.1,9.7,4.9,15,5.4c12.7,1.8,25.5,-0.2,38,-2.1c14,-2.2,27.7,-6.2,41.5,-9.4c21.8,-5.9,43.8,-12.7,64.9,-20.6c0.4,2.4,0.8,4.3,1.2,6.7c-8.8,3.6,-18.3,7.4,-27.5,10.1c-15.9,5.2,-32,10.2,-48.3,14.5c-9.2,3.1,-18.9,4.8,-28.4,7c-18,3.3,-36.5,7,-54.8,4.1c-6.1,-1.4,-12.8,-4.2,-15.4,-10.4c-3.3,-8.9,1.9,-17.5,5.6,-25.4c-6.6,6.8,-11.8,14.8,-16,23.3c-3.8,7.5,-6.7,17.1,-2.4,25.1c5.1,7.9,15.3,9.4,23.8,10.2c20,1.1,39.9,-2.4,59.3,-6.5c14.3,-3.6,28.8,-6.6,42.8,-11.2c10.5,-3.1,20.9,-6.4,31.3,-9.4c10.4,-2.9,20.3,-7.2,30.7,-10.1c0.1,2.5,0.1,4.4,0,5.7c-0.2,2.4,-0.5,2.9,-0.7,3c-18.8,6.3,-39.7,13.1,-58.8,18.8c-29.5,8.6,-59.4,16.7,-90,20c-12.6,1.1,-25.8,2.1,-37.9,-2.3C408,230.8,402.5,226,401.9,219.6c-1.7,-9.9,3.5,-18.7,7.8,-27.1c-8.6,9.2,-15.5,20,-20.9,31.5c-2.9,6.2,-4.1,13.3,-3.1,20.1c0.8,3.3,2,6.9,5,8.9c7.4,6.8,18,7.8,27.6,8.5c26,1.2,51.6,-4.6,76.7,-10.2c14.4,-3.9,28.9,-7.1,43.1,-11.4c19.2,-5.5,39,-12.4,57.9,-18.7c-5.9,19,-16.1,36.2,-29.6,50.3c-15.6,16.1,-35.3,28.4,-56.6,34.4c-7.7,2.4,-15.7,3.5,-23.7,4.7c-1.6,0.2,-3.2,0.3,-4.9,0.4c-3.1,0.2,0.1,0.1,-3.2,0.2Z" class="g1_1"/>
<path d="M159,439.2c0,3.5,2.9,6.3,6.4,6.3l12.8,0c3.6,0,6.6,-3,6.6,-6.5l0,-85.3c0,-3.6,-3,-6.4,-6.6,-6.4l-12.8,0c-3.5,0,-6.4,2.8,-6.4,6.4l0,30.9l-47.2,0l0,-30.9c0,-3.6,-2.9,-6.4,-6.5,-6.4l-12.7,0c-3.7,0,-6.6,2.8,-6.6,6.4L86,439c0,3.5,2.9,6.5,6.6,6.5l12.7,0c3.6,0,6.5,-2.8,6.5,-6.3l0,-35.3l47.2,0Z" class="g1_1"/>
<path d="M227.3,431.3c-7.3,0,-11.1,-3.6,-11.1,-8.6c0,-4.6,3.8,-8.2,10.4,-8.2l21,0l0,10.6c-4.9,3.1,-11.9,6.2,-20.3,6.2m6.3,-46.7c9.4,0,14,3.3,14,14.3l-22.7,0c-18.4,0,-32.4,8,-32.4,23.8c0,15.9,14,24.2,32.4,24.2c10.8,0,18.5,-3.2,24.8,-7.7l0,2.1c0,2.4,1.9,4.2,4.3,4.2l13.2,0c2.3,0,4.2,-1.8,4.2,-4.2l0,-42.4C271.4,377.4,255.5,369,235.3,369c-22.7,0,-37.3,5.1,-37.3,19.6c0,2.4,1.8,4.3,4.2,4.3l10.2,0c3.5,0,6.1,-1.4,7.9,-3.7c2.4,-2.9,7.6,-4.6,13.3,-4.6Z" class="g1_1"/>
<path d="M301.4,445.5c2.4,0,4.2,-1.8,4.2,-4.2l0,-89.8c0,-2.4,-1.8,-4.2,-4.2,-4.2l-15.3,0c-2.4,0,-4.2,1.8,-4.2,4.2l0,89.8c0,2.4,1.8,4.2,4.2,4.2Z" class="g1_1"/>
<path d="M335.6,445.5c2.4,0,4.2,-1.8,4.2,-4.2l0,-89.8c0,-2.4,-1.8,-4.2,-4.2,-4.2l-15.3,0c-2.4,0,-4.2,1.8,-4.2,4.2l0,89.8c0,2.4,1.8,4.2,4.2,4.2Z" class="g1_1"/>
<path d="M370.2,445.5c2.3,0,4.2,-1.8,4.2,-4.2l0,-65c0,-2.4,-1.9,-4.2,-4.2,-4.2l-15.3,0c-2.4,0,-4.3,1.8,-4.3,4.2l0,65c0,2.4,1.9,4.2,4.3,4.2ZM350.4,356.1c0,4.9,2.9,7.9,7.8,7.9l8.6,0c4.9,0,7.8,-3,7.8,-7.9l0,-2.4c0,-4.9,-2.9,-7.9,-7.8,-7.9l-8.6,0c-4.9,0,-7.8,3,-7.8,7.9Z" class="g1_1"/>
<path d="M440.3,441.3c0,2.4,1.8,4.2,4.2,4.2l15.3,0c2.4,0,4.2,-1.8,4.2,-4.2L464,402c0,-23.3,-12.9,-33,-31.1,-33c-10.5,0,-17.6,4.5,-24,10l0,-4.4c0,-2.4,-1.8,-4.2,-4.2,-4.2l-15.3,0c-2.4,0,-4.2,1.8,-4.2,4.2l0,66.7c0,2.4,1.8,4.2,4.2,4.2l15.3,0c2.4,0,4.2,-1.8,4.2,-4.2l0,-45.9c5,-5.1,11.5,-9.8,18.4,-9.8c7.7,0,13,4.7,13,16.4Z" class="g1_1"/>
<path d="M470.4,404.6c0,21.9,14.1,35.1,34.6,35.1c8.9,0,15,-1.4,20.5,-2.8l0,3.3c0,10.9,-4.6,14.3,-15.4,14.3c-7.2,0,-12.4,-1.7,-14.8,-4.7c-1.8,-2.2,-4.3,-3.6,-7.8,-3.6l-10.3,0c-2.4,0,-4.2,1.8,-4.2,4.2c0,14.6,14.6,19.6,38.7,19.6c21.7,0,37.5,-8.4,37.5,-29.8l0,-63.5C541.9,372.5,525.8,369,512.5,369c-27.4,0,-42.1,13.2,-42.1,35.6m24.4,0c0,-12.2,4.6,-19,16.2,-19c5.8,0,11.3,0.7,14.5,1.5l0,34c-5.5,1.4,-10.9,2.1,-14.9,2.1c-11.2,0,-15.8,-6.9,-15.8,-18.6Z" class="g1_1"/>
<path d="M595.8,430.3C584.6,430.3,580,423.5,580,408c0,-15.6,4.6,-22.4,17.2,-22.4c3.5,0,9.1,0.9,14.9,2.8l0,35.8c-4.9,3,-11.2,6.1,-16.3,6.1m-5.6,16.6c10,0,17.7,-3.2,24,-7.7l0,2.1c0,2.4,1.8,4.2,4.2,4.2l13.2,0c2.4,0,4.2,-1.8,4.2,-4.2l0,-89.8c0,-2.4,-1.8,-4.3,-4.2,-4.3l-15.3,0c-2.4,0,-4.2,1.9,-4.2,4.3l0,21C606.3,370.7,600.7,369,592.3,369c-21.9,0,-36.8,13.2,-36.8,39c0,25.7,14.8,38.9,34.7,38.9Z" class="g1_1"/>
<path d="M676.9,431.3c-7.3,0,-11.1,-3.6,-11.1,-8.6c0,-4.6,3.8,-8.2,10.4,-8.2l21.1,0l0,10.6c-4.9,3.1,-12,6.2,-20.4,6.2m6.3,-46.7c9.4,0,14.1,3.3,14.1,14.3l-22.8,0c-18.3,0,-32.4,8,-32.4,23.8c0,15.9,14.1,24.2,32.4,24.2c10.8,0,18.6,-3.2,24.9,-7.7l0,2.1c0,2.4,1.8,4.2,4.2,4.2l13.2,0c2.4,0,4.2,-1.8,4.2,-4.2l0,-42.4C721,377.4,705.1,369,684.9,369c-22.7,0,-37.3,5.1,-37.3,19.6c0,2.4,1.8,4.3,4.2,4.3l10.2,0c3.6,0,6.1,-1.4,7.9,-3.7c2.4,-2.9,7.6,-4.6,13.3,-4.6Z" class="g1_1"/>
<path d="M779.2,445.5c2.4,-0.4,4.2,-2.1,4.2,-4.2l0,-7.3c0,-2.4,-1.8,-4.2,-4.2,-4.2l-2.5,0c-3.1,0,-5.8,0.8,-9.4,0.8c-7.2,0,-12.1,-5,-12.1,-14.6l0,-25.1l19.1,0c2.4,0,4.2,-1.8,4.2,-4.2l0,-8.2c0,-2.3,-1.8,-4.2,-4.2,-4.2l-19.1,0l0,-22.8c0,-2.4,-1.8,-4.2,-4.2,-4.2l-15.3,0c-2.4,0,-4.2,1.8,-4.2,4.2l0,64.5c0,21.1,9.8,30.9,29.5,30.9c6.3,0,14,-0.6,18.2,-1.4Z" class="g1_1"/>
<path d="M821.7,431.3c-7.3,0,-11,-3.6,-11,-8.6c0,-4.6,3.7,-8.2,10.3,-8.2l21.1,0l0,10.6c-4.9,3.1,-11.9,6.2,-20.4,6.2m6.4,-46.7c9.4,0,14,3.3,14,14.3l-22.7,0c-18.4,0,-32.5,8,-32.5,23.8c0,15.9,14.1,24.2,32.5,24.2c10.8,0,18.5,-3.2,24.8,-7.7l0,2.1c0,2.4,1.8,4.2,4.2,4.2l13.2,0c2.4,0,4.2,-1.8,4.2,-4.2l0,-42.4C865.8,377.4,850,369,829.7,369c-22.7,0,-37.3,5.1,-37.3,19.6c0,2.4,1.8,4.3,4.2,4.3l10.3,0c3.5,0,6,-1.4,7.8,-3.7c2.4,-2.9,7.6,-4.6,13.4,-4.6Z" class="g1_1"/>

</svg>