<svg x="0" y="0" width="952" height="519" viewBox="0 0 952 519" version="1.1" xmlns="http://www.w3.org/2000/svg" xmlns:xlink="http://www.w3.org/1999/xlink" style="display: block;margin-left: auto;margin-right: auto;">
<defs>

<style type="text/css"><![CDATA[

.g1_1{
fill: #5F02BC;
}


]]></style>

</defs>
<path fill-rule="evenodd" d="M478.5,305.6c-1.4,0.1,-2.9,0.1,-4.3,0.1c-2.6,0,-5.1,-0.1,-7.5,-0.2c-1.2,-0.1,-1.1,-0.1,-2,-0.1c-67.1,-4.9,-120,-60.9,-120,-129.2c0,-31.6,11.3,-60.7,30.2,-83.1c0.7,-0.8,1.3,-1.6,2,-2.3C388,78.1,401.6,67.6,417,60c17.2,-8.2,36.3,-12.5,55.3,-13.2c0.6,-0.1,1.2,-0.1,1.9,-0.1c0.3,0,0.6,0,0.9,0c2.1,0.1,-1,0,1.8,0.1c0.6,0,1.2,0,1.9,0c22.8,1.6,45.5,8,64.7,20.5c12.9,8.3,24.4,18.7,33.5,31c4.4,6,9.3,12,12,19c-19.1,6.2,-38.9,12.3,-58.4,17.5c-13.6,3,-27.2,6.1,-41.2,6.4c-7.6,-0.3,-17.1,-0.5,-21.3,-8.1c-2,-6,0.5,-11.9,2.9,-17.2c-6.3,7.9,-13.1,16.7,-13.7,27.3c0.1,3.8,1.7,8.2,5.4,9.9c8.2,4.4,17.9,4.1,26.9,3.5c17.6,-1.2,34.5,-6,51.5,-10.1c18.2,-4.8,36.1,-10.8,54,-16.5c0.3,1.4,0.9,2.6,1.5,3.9c0.3,1,0.6,1.9,0.9,2.8c-20.6,7.7,-43,13.5,-64.1,19.7c-21.3,5.3,-43,10.8,-65.2,10c-5,-0.4,-10.1,-1.3,-14.4,-3.8c-3.4,-1.9,-5.8,-5.5,-6.1,-9.4c-0.4,-7.1,3.4,-13.5,6.3,-19.7c-7.3,8.9,-14.4,18.6,-17.6,29.9c-1.6,5.4,-0.9,12.1,3.5,16c4.5,3.2,9.9,5,15.3,5.5c12.8,1.9,25.7,-0.2,38.3,-2.1c14.3,-2.2,28.1,-6.3,42.1,-9.5c22,-5.9,44.2,-12.9,65.6,-20.8c0.4,2.4,0.8,4.3,1.2,6.7c-8.9,3.7,-18.5,7.5,-27.8,10.2c-16.1,5.3,-32.4,10.3,-48.8,14.7c-9.4,3.1,-19.2,4.9,-28.8,7.1c-18.2,3.3,-36.9,7.1,-55.4,4.2c-6.2,-1.5,-13,-4.3,-15.6,-10.5c-3.3,-9.1,1.9,-17.8,5.6,-25.8c-6.6,6.9,-11.9,15,-16.1,23.6c-3.8,7.6,-6.8,17.3,-2.4,25.4c5.1,8,15.4,9.4,24.1,10.3c20.2,1.1,40.2,-2.4,59.9,-6.6c14.5,-3.7,29.1,-6.6,43.3,-11.3c10.6,-3.2,21.1,-6.4,31.7,-9.6c10.5,-2.8,20.5,-7.2,31,-10.1c0.1,2.5,0.1,4.4,0,5.8c-0.3,2.4,-0.5,2.9,-0.7,3c-19.1,6.3,-40.2,13.3,-59.5,18.9c-29.8,8.7,-60,17,-91,20.3c-12.7,1.1,-26.1,2.1,-38.3,-2.4c-5.9,-2,-11.4,-6.9,-12.1,-13.4c-1.6,-10,3.6,-18.9,8,-27.4c-8.8,9.4,-15.8,20.3,-21.2,31.8c-2.9,6.4,-4.1,13.5,-3.1,20.4c0.8,3.4,2,6.9,5,9c7.5,6.9,18.3,7.9,27.9,8.6c26.3,1.2,52.2,-4.7,77.6,-10.3c14.5,-4,29.2,-7.2,43.6,-11.6C558.7,228,578.7,221,597.8,214.6c-5.9,19.3,-16.3,36.6,-29.9,50.9c-15.7,16.3,-35.7,28.7,-57.3,34.8c-7.8,2.4,-15.9,3.6,-23.9,4.8c-1.6,0.1,-3.3,0.3,-4.9,0.4c-3.1,0.2,0.1,0,-3.3,0.1Z" class="g1_1"/>
<path d="M155.9,441.7c0,3.6,3,6.4,6.5,6.4l12.9,0c3.7,0,6.7,-3,6.7,-6.5l0,-86.3c0,-3.7,-3,-6.5,-6.7,-6.5l-12.9,0c-3.5,0,-6.5,2.8,-6.5,6.5l0,31.2l-47.7,0l0,-31.2c0,-3.7,-3,-6.5,-6.5,-6.5l-12.9,0c-3.7,0,-6.7,2.8,-6.7,6.5l0,86.3c0,3.5,3,6.5,6.7,6.5l12.9,0c3.5,0,6.5,-2.8,6.5,-6.4l0,-35.6l47.7,0Z" class="g1_1"/>
<path d="M225,433.8c-7.4,0,-11.2,-3.7,-11.2,-8.7c0,-4.7,3.8,-8.4,10.5,-8.4l21.3,0l0,10.8c-5,3.2,-12.1,6.3,-20.6,6.3m6.4,-47.3c9.5,0,14.2,3.4,14.2,14.5l-23,0c-18.6,0,-32.8,8.1,-32.8,24.1c0,16.1,14.2,24.4,32.8,24.4c10.9,0,18.7,-3.2,25.1,-7.8l0,2.2c0,2.4,1.9,4.2,4.3,4.2l13.3,0c2.4,0,4.3,-1.8,4.3,-4.2l0,-42.9c0,-21.7,-16.1,-30.2,-36.5,-30.2c-23,0,-37.8,5.1,-37.8,19.8c0,2.5,1.9,4.3,4.3,4.3l10.4,0c3.5,0,6.1,-1.4,7.9,-3.7c2.4,-3,7.7,-4.7,13.5,-4.7Z" class="g1_1"/>
<path d="M299.9,448.1c2.4,0,4.3,-1.8,4.3,-4.2l0,-90.9c0,-2.4,-1.9,-4.2,-4.3,-4.2l-15.4,0c-2.5,0,-4.3,1.8,-4.3,4.2l0,90.9c0,2.4,1.8,4.2,4.3,4.2Z" class="g1_1"/>
<path d="M334.5,448.1c2.5,0,4.3,-1.8,4.3,-4.2l0,-90.9c0,-2.4,-1.8,-4.2,-4.3,-4.2l-15.4,0c-2.4,0,-4.3,1.8,-4.3,4.2l0,90.9c0,2.4,1.9,4.2,4.3,4.2Z" class="g1_1"/>
<path d="M369.5,448.1c2.4,0,4.2,-1.8,4.2,-4.2l0,-65.7c0,-2.5,-1.8,-4.3,-4.2,-4.3l-15.5,0c-2.4,0,-4.3,1.8,-4.3,4.3l0,65.7c0,2.4,1.9,4.2,4.3,4.2ZM349.4,357.7c0,5,3,8,8,8l8.7,0c4.9,0,7.9,-3,7.9,-8l0,-2.4c0,-5,-3,-7.9,-7.9,-7.9l-8.7,0c-5,0,-8,2.9,-8,7.9Z" class="g1_1"/>
<path d="M440.4,443.9c0,2.4,1.9,4.2,4.3,4.2l15.4,0c2.4,0,4.3,-1.8,4.3,-4.2l0,-39.8c0,-23.5,-13.1,-33.3,-31.5,-33.3c-10.7,0,-17.8,4.5,-24.3,10.1l0,-4.4c0,-2.5,-1.8,-4.3,-4.2,-4.3l-15.5,0c-2.4,0,-4.3,1.8,-4.3,4.3l0,67.4c0,2.4,1.9,4.2,4.3,4.2l15.5,0c2.4,0,4.2,-1.8,4.2,-4.2l0,-46.4c5.1,-5.2,11.7,-10,18.6,-10c7.8,0,13.2,4.8,13.2,16.6Z" class="g1_1"/>
<path d="M470.8,406.8c0,22.2,14.3,35.5,35,35.5c9,0,15.2,-1.4,20.7,-2.8l0,3.2c0,11.1,-4.6,14.5,-15.6,14.5c-7.2,0,-12.5,-1.7,-14.9,-4.7c-1.8,-2.3,-4.4,-3.7,-7.9,-3.7l-10.4,0c-2.4,0,-4.2,1.9,-4.2,4.3c0,14.7,14.7,19.8,39.1,19.8c21.9,0,37.9,-8.5,37.9,-30.2l0,-64.1c-7.4,-4.3,-23.7,-7.8,-37.2,-7.8c-27.6,0,-42.5,13.3,-42.5,36m24.7,0c0,-12.3,4.6,-19.3,16.4,-19.3c5.8,0,11.4,0.7,14.6,1.6l0,34.3c-5.5,1.4,-11,2.1,-15,2.1c-11.4,0,-16,-6.9,-16,-18.7Z" class="g1_1"/>
<path d="M597.6,432.8c-11.3,0,-16,-7,-16,-22.6c0,-15.7,4.7,-22.7,17.5,-22.7c3.5,0,9.2,1,15,2.9l0,36.1c-5,3.2,-11.4,6.3,-16.5,6.3M592,449.5c10,0,17.8,-3.2,24.2,-7.8l0,2.2c0,2.4,1.9,4.2,4.3,4.2l13.3,0c2.4,0,4.3,-1.8,4.3,-4.2l0,-90.9c0,-2.4,-1.9,-4.2,-4.3,-4.2l-15.5,0c-2.4,0,-4.2,1.8,-4.2,4.2l0,21.3c-5.8,-1.8,-11.5,-3.5,-20,-3.5c-22.2,0,-37.2,13.3,-37.2,39.4c0,26,14.9,39.3,35.1,39.3Z" class="g1_1"/>
<path d="M679.6,433.8c-7.3,0,-11.2,-3.7,-11.2,-8.7c0,-4.7,3.9,-8.4,10.5,-8.4l21.3,0l0,10.8c-4.9,3.2,-12,6.3,-20.6,6.3M686,386.5c9.5,0,14.2,3.4,14.2,14.5l-23,0c-18.6,0,-32.7,8.1,-32.7,24.1c0,16.1,14.1,24.4,32.7,24.4c11,0,18.8,-3.2,25.2,-7.8l0,2.2c0,2.4,1.8,4.2,4.2,4.2l13.3,0c2.5,0,4.3,-1.8,4.3,-4.2l0,-42.9c0,-21.7,-16,-30.2,-36.5,-30.2c-23,0,-37.7,5.1,-37.7,19.8c0,2.5,1.8,4.3,4.2,4.3l10.4,0c3.6,0,6.1,-1.4,8,-3.7c2.4,-3,7.6,-4.7,13.4,-4.7Z" class="g1_1"/>
<path d="M783.1,448.1c2.4,-0.4,4.2,-2.1,4.2,-4.2l0,-7.4c0,-2.4,-1.8,-4.3,-4.2,-4.3l-2.6,0c-3.1,0,-5.8,0.9,-9.5,0.9c-7.2,0,-12.2,-5.1,-12.2,-14.8l0,-25.4l19.3,0c2.4,0,4.3,-1.8,4.3,-4.2l0,-8.3c0,-2.4,-1.9,-4.2,-4.3,-4.2l-19.3,0l0,-23.2c0,-2.4,-1.8,-4.2,-4.2,-4.2l-15.5,0c-2.4,0,-4.3,1.8,-4.3,4.2l0,65.3c0,21.3,10,31.2,29.8,31.2c6.4,0,14.2,-0.5,18.5,-1.4Z" class="g1_1"/>
<path d="M826.1,433.8c-7.4,0,-11.2,-3.7,-11.2,-8.7c0,-4.7,3.8,-8.4,10.5,-8.4l21.3,0l0,10.8c-5,3.2,-12.1,6.3,-20.6,6.3m6.4,-47.3c9.5,0,14.2,3.4,14.2,14.5l-23,0c-18.6,0,-32.8,8.1,-32.8,24.1c0,16.1,14.2,24.4,32.8,24.4c10.9,0,18.7,-3.2,25.1,-7.8l0,2.2c0,2.4,1.8,4.2,4.2,4.2l13.4,0c2.4,0,4.2,-1.8,4.2,-4.2l0,-42.9c0,-21.7,-16,-30.2,-36.4,-30.2c-23,0,-37.8,5.1,-37.8,19.8c0,2.5,1.9,4.3,4.3,4.3l10.3,0c3.6,0,6.1,-1.4,8,-3.7c2.4,-3,7.7,-4.7,13.5,-4.7Z" class="g1_1"/>

</svg>