<svg x="0" y="0" width="1286" height="433" viewBox="0 0 1286 433" version="1.1" xmlns="http://www.w3.org/2000/svg" xmlns:xlink="http://www.w3.org/1999/xlink" style="display: block;margin-left: auto;margin-right: auto;">
<defs>

<style type="text/css"><![CDATA[

.g1_1{
fill: #FFFFFF;
}


]]></style>

</defs>
<path fill-rule="evenodd" d="M203.3,354.3c-1.6,0.1,-3.1,0.1,-4.7,0.1c-2.6,0,-5.3,-0.1,-7.9,-0.3c-1.3,0,-1.1,0,-2.1,-0.1C117.1,348.9,60.8,289.3,60.8,216.5C60.8,182.8,72.9,151.9,93,128c0.7,-0.8,1.4,-1.6,2.1,-2.4c11.8,-13.5,26.3,-24.7,42.7,-32.8C156.1,84,176.4,79.5,196.7,78.7c0.6,0,1.3,0,1.9,0c0.3,0,0.7,0,1,0c2.2,0,-1,0,2,0c0.6,0,1.3,0.1,1.9,0.1c24.3,1.6,48.5,8.5,69,21.8c13.7,8.8,25.9,19.9,35.6,33c4.7,6.4,9.9,12.7,12.8,20.2c-20.4,6.6,-41.4,13.1,-62.2,18.6c-14.4,3.2,-29,6.5,-43.8,6.8c-8.1,-0.3,-18.3,-0.5,-22.7,-8.6c-2.2,-6.3,0.6,-12.6,3.1,-18.3c-6.8,8.5,-14,17.8,-14.6,29.1c0.1,4.1,1.8,8.7,5.7,10.5c8.7,4.7,19.1,4.4,28.7,3.7c18.7,-1.2,36.7,-6.3,54.8,-10.7c19.3,-5.1,38.4,-11.5,57.5,-17.5c0.3,1.4,0.9,2.7,1.6,4.1c0.3,1,0.6,2,0.9,3c-21.9,8.2,-45.7,14.3,-68.2,20.9c-22.7,5.7,-45.8,11.5,-69.4,10.7C187,205.7,181.6,204.7,176.9,202c-3.5,-2,-6.2,-5.9,-6.4,-9.9c-0.5,-7.7,3.6,-14.4,6.7,-21.1c-7.8,9.6,-15.3,19.9,-18.7,31.9c-1.8,5.8,-1,12.9,3.7,17.1c4.8,3.3,10.5,5.3,16.2,5.8c13.7,2,27.4,-0.2,40.9,-2.3c15.1,-2.3,29.8,-6.6,44.7,-10.1c23.4,-6.3,47.2,-13.7,69.9,-22.1c0.4,2.5,0.8,4.6,1.3,7.1c-9.6,3.9,-19.7,8,-29.6,10.9c-17.2,5.7,-34.5,11,-52,15.7c-10,3.2,-20.4,5.1,-30.6,7.4c-19.4,3.6,-39.3,7.6,-59.1,4.5c-6.5,-1.5,-13.8,-4.6,-16.5,-11.2c-3.5,-9.6,2,-18.9,6,-27.4c-7.1,7.4,-12.7,16,-17.2,25.1c-4.1,8.1,-7.2,18.4,-2.5,27c5.4,8.6,16.4,10.1,25.6,11.1c21.4,1.1,42.8,-2.6,63.8,-7.1c15.4,-3.9,31,-7,46.1,-12c11.2,-3.4,22.4,-6.9,33.7,-10.2c11.2,-3,21.8,-7.7,33,-10.8c0.1,2.7,0.1,4.7,0,6.2c-0.3,2.5,-0.5,3.1,-0.7,3.2c-20.3,6.7,-42.8,14.1,-63.4,20.1c-31.7,9.3,-63.9,18.1,-96.9,21.6c-13.5,1.2,-27.7,2.3,-40.7,-2.5c-6.3,-2.2,-12.2,-7.4,-12.9,-14.3c-1.8,-10.7,3.8,-20.1,8.5,-29.1c-9.3,9.9,-16.8,21.5,-22.5,33.8c-3.1,6.8,-4.4,14.3,-3.4,21.7c0.9,3.6,2.2,7.4,5.4,9.6c7.9,7.3,19.4,8.4,29.7,9.1c27.9,1.4,55.5,-5,82.6,-10.9c15.4,-4.3,31.1,-7.7,46.4,-12.4c20.6,-5.9,42,-13.2,62.3,-20.1c-6.4,20.5,-17.4,39,-31.8,54.2c-16.8,17.4,-38,30.5,-61.1,37c-8.2,2.6,-16.8,3.8,-25.4,5.1c-1.7,0.2,-3.5,0.3,-5.2,0.4c-3.4,0.2,0,0.1,-3.5,0.2Z" class="g1_1"/>
<path d="M472,261.2c0,3.8,3.2,6.8,6.9,6.8l13.8,0c3.9,0,7.1,-3.2,7.1,-7l0,-91.8c0,-4,-3.2,-7,-7.1,-7l-13.8,0c-3.7,0,-6.9,3,-6.9,7l0,33.2l-50.8,0l0,-33.2c0,-4,-3.1,-7,-6.9,-7l-13.8,0c-3.9,0,-7.1,3,-7.1,7l0,91.8c0,3.8,3.2,7,7.1,7l13.8,0c3.8,0,6.9,-3,6.9,-6.8l0,-37.9l50.8,0Z" class="g1_1"/>
<path d="M545.6,252.7c-7.9,0,-12,-3.9,-12,-9.2c0,-5,4.1,-8.9,11.2,-8.9l22.7,0l0,11.5c-5.3,3.3,-12.9,6.6,-21.9,6.6m6.8,-50.3c10.1,0,15.1,3.6,15.1,15.4l-24.5,0c-19.8,0,-34.9,8.6,-34.9,25.7c0,17.1,15.1,26,34.9,26c11.6,0,19.9,-3.5,26.7,-8.3l0,2.2c0,2.6,2,4.6,4.6,4.6l14.2,0c2.5,0,4.5,-2,4.5,-4.6l0,-45.6c0,-23.1,-17.1,-32.2,-38.8,-32.2c-24.5,0,-40.2,5.5,-40.2,21.2c0,2.6,2,4.5,4.5,4.5l11,0c3.8,0,6.5,-1.5,8.5,-3.9c2.6,-3.2,8.2,-5,14.4,-5Z" class="g1_1"/>
<path d="M625.3,268c2.6,0,4.6,-2,4.6,-4.6l0,-96.6c0,-2.6,-2,-4.6,-4.6,-4.6l-16.4,0c-2.6,0,-4.6,2,-4.6,4.6l0,96.6c0,2.6,2,4.6,4.6,4.6Z" class="g1_1"/>
<path d="M662.2,268c2.6,0,4.5,-2,4.5,-4.6l0,-96.6c0,-2.6,-1.9,-4.6,-4.5,-4.6l-16.5,0c-2.5,0,-4.5,2,-4.5,4.6l0,96.6c0,2.6,2,4.6,4.5,4.6Z" class="g1_1"/>
<path d="M699.3,268c2.6,0,4.6,-2,4.6,-4.6l0,-69.9c0,-2.6,-2,-4.5,-4.6,-4.5l-16.4,0c-2.6,0,-4.6,1.9,-4.6,4.5l0,69.9c0,2.6,2,4.6,4.6,4.6ZM678,171.7c0,5.3,3.2,8.5,8.5,8.5l9.2,0c5.3,0,8.5,-3.2,8.5,-8.5l0,-2.5c0,-5.3,-3.2,-8.5,-8.5,-8.5l-9.2,0c-5.3,0,-8.5,3.2,-8.5,8.5Z" class="g1_1"/>
<path d="M774.9,263.4c0,2.6,1.9,4.6,4.5,4.6l16.5,0c2.5,0,4.5,-2,4.5,-4.6l0,-42.3c0,-25,-13.9,-35.5,-33.5,-35.5c-11.4,0,-18.9,4.9,-25.9,10.8l0,-4.7c0,-2.6,-1.9,-4.5,-4.5,-4.5l-16.5,0c-2.5,0,-4.5,1.9,-4.5,4.5l0,71.7c0,2.6,2,4.6,4.5,4.6l16.5,0c2.6,0,4.5,-2,4.5,-4.6L741,214c5.5,-5.4,12.4,-10.5,19.8,-10.5c8.3,0,14.1,5.1,14.1,17.6Z" class="g1_1"/>
<path d="M807.2,224c0,23.6,15.3,37.8,37.3,37.8c9.5,0,16.2,-1.5,22.1,-3l0,3.4c0,11.8,-5,15.4,-16.6,15.4c-7.7,0,-13.3,-1.8,-15.9,-4.9c-2,-2.5,-4.7,-4,-8.5,-4l-11,0c-2.6,0,-4.5,2,-4.5,4.6c0,15.7,15.7,21.1,41.7,21.1c23.2,0,40.3,-9.1,40.3,-32.2l0,-68.2c-7.8,-4.6,-25.2,-8.4,-39.6,-8.4c-29.4,0,-45.3,14.2,-45.3,38.4m26.3,0c0,-13.1,5,-20.5,17.5,-20.5c6.2,0,12.1,0.7,15.6,1.6l0,36.6c-5.9,1.5,-11.8,2.3,-16,2.3c-12.1,0,-17.1,-7.4,-17.1,-20Z" class="g1_1"/>
<path d="M942.3,251.7c-12.1,0,-17.1,-7.4,-17.1,-24.1c0,-16.7,5,-24.1,18.6,-24.1c3.8,0,9.8,1,16,3l0,38.5c-5.3,3.3,-12.1,6.7,-17.5,6.7m-6.1,17.8c10.7,0,19.1,-3.5,25.9,-8.3l0,2.2c0,2.6,1.9,4.6,4.5,4.6l14.2,0c2.6,0,4.5,-2,4.5,-4.6l0,-96.6c0,-2.6,-1.9,-4.6,-4.5,-4.6l-16.5,0c-2.5,0,-4.5,2,-4.5,4.6l0,22.6c-6.2,-1.9,-12.2,-3.8,-21.3,-3.8c-23.6,0,-39.6,14.2,-39.6,42c0,27.7,15.9,41.9,37.3,41.9Z" class="g1_1"/>
<path d="M1029.6,252.7c-7.9,0,-12,-3.9,-12,-9.2c0,-5,4.1,-8.9,11.2,-8.9l22.7,0l0,11.5c-5.3,3.3,-12.9,6.6,-21.9,6.6m6.8,-50.3c10.1,0,15.1,3.6,15.1,15.4l-24.5,0c-19.8,0,-34.9,8.6,-34.9,25.7c0,17.1,15.1,26,34.9,26c11.6,0,20,-3.5,26.8,-8.3l0,2.2c0,2.6,1.9,4.6,4.5,4.6l14.2,0c2.6,0,4.5,-2,4.5,-4.6l0,-45.6c0,-23.1,-17.1,-32.2,-38.8,-32.2c-24.5,0,-40.2,5.5,-40.2,21.2c0,2.6,2,4.5,4.5,4.5l11.1,0c3.7,0,6.5,-1.5,8.4,-3.9c2.6,-3.2,8.2,-5,14.4,-5Z" class="g1_1"/>
<path d="M1139.7,268c2.6,-0.5,4.5,-2.3,4.5,-4.6l0,-7.8c0,-2.6,-1.9,-4.5,-4.5,-4.5l-2.7,0c-3.3,0,-6.2,0.9,-10.1,0.9c-7.7,0,-13,-5.5,-13,-15.8l0,-27l20.5,0c2.6,0,4.6,-2,4.6,-4.5l0,-8.8c0,-2.6,-2,-4.5,-4.6,-4.5l-20.5,0l0,-24.6c0,-2.6,-2,-4.6,-4.6,-4.6l-16.4,0c-2.6,0,-4.6,2,-4.6,4.6l0,69.4c0,22.7,10.6,33.3,31.8,33.3c6.8,0,15.1,-0.6,19.6,-1.5Z" class="g1_1"/>
<path d="M1185.5,252.7c-7.9,0,-12,-3.9,-12,-9.2c0,-5,4.1,-8.9,11.2,-8.9l22.7,0l0,11.5c-5.3,3.3,-12.9,6.6,-21.9,6.6m6.8,-50.3c10.1,0,15.1,3.6,15.1,15.4l-24.5,0c-19.8,0,-34.9,8.6,-34.9,25.7c0,17.1,15.1,26,34.9,26c11.6,0,20,-3.5,26.8,-8.3l0,2.2c0,2.6,1.9,4.6,4.5,4.6l14.2,0c2.6,0,4.5,-2,4.5,-4.6l0,-45.6c0,-23.1,-17.1,-32.2,-38.8,-32.2c-24.5,0,-40.2,5.5,-40.2,21.2c0,2.6,2,4.5,4.5,4.5l11.1,0c3.7,0,6.5,-1.5,8.4,-3.9c2.6,-3.2,8.2,-5,14.4,-5Z" class="g1_1"/>

</svg>