<?xml version="1.0" standalone="no"?>
<!DOCTYPE svg PUBLIC "-//W3C//DTD SVG 20010904//EN"
 "http://www.w3.org/TR/2001/REC-SVG-20010904/DTD/svg10.dtd">
<svg version="1.0" xmlns="http://www.w3.org/2000/svg"
 width="200.000000pt" height="200.000000pt" viewBox="0 0 200.000000 200.000000"
 preserveAspectRatio="xMidYMid meet">
<metadata>
Created by potrace 1.11, written by Peter Selinger 2001-2013
</metadata>
<g transform="translate(0.000000,200.000000) scale(0.100000,-0.100000)"
fill="#000000" stroke="none">
<path d="M921 1749 c-25 -5 -63 -11 -85 -15 -78 -11 -180 -60 -294 -139 -67
-47 -220 -240 -228 -287 -1 -7 -11 -36 -22 -64 -29 -73 -46 -203 -38 -298 13
-159 9 -143 73 -298 9 -21 20 -38 25 -38 4 0 8 -6 8 -14 0 -26 121 -163 188
-213 71 -53 174 -109 213 -117 13 -2 51 -12 84 -22 82 -25 246 -25 338 0 37
10 73 19 80 20 7 1 35 13 62 26 28 14 53 25 57 25 3 0 21 11 40 25 18 14 35
25 38 25 5 0 28 20 104 93 44 44 80 92 135 183 22 39 54 132 42 125 -4 -3 -20
-7 -36 -10 -16 -3 -52 -14 -80 -25 -135 -51 -523 -158 -602 -166 -16 -2 -68
-10 -118 -20 -131 -25 -284 -18 -345 15 -54 30 -72 71 -58 134 10 50 38 116
49 116 4 0 11 10 15 22 3 12 15 31 26 42 19 21 19 21 4 -16 -36 -84 -7 -145
81 -173 46 -15 75 -17 157 -11 56 3 130 13 166 20 35 8 67 13 71 10 4 -2 44 8
90 22 46 13 99 27 117 30 18 3 64 16 102 29 39 13 70 22 70 20 0 -2 33 8 73
22 39 14 82 27 95 29 12 3 46 14 75 25 28 12 59 22 67 23 9 2 16 16 18 33 l3
31 -39 -9 c-21 -4 -60 -17 -85 -28 -25 -11 -58 -22 -74 -24 -15 -3 -55 -15
-88 -27 -33 -12 -69 -23 -80 -25 -11 -2 -49 -12 -85 -24 -36 -11 -81 -23 -100
-26 -19 -3 -73 -15 -120 -27 -69 -18 -115 -22 -242 -22 l-157 -1 -31 30 c-30
28 -32 33 -27 87 4 42 15 73 42 118 20 33 38 60 39 60 2 0 -2 -18 -7 -40 -25
-91 35 -140 173 -140 93 0 277 29 383 61 38 11 80 23 95 25 15 3 52 13 82 23
116 39 190 62 209 66 10 2 40 13 65 25 40 18 46 24 40 43 -3 12 -7 23 -9 24
-1 2 -19 -6 -41 -16 -21 -10 -55 -22 -74 -26 -19 -4 -53 -16 -77 -26 -23 -10
-60 -21 -82 -24 -23 -3 -56 -12 -74 -20 -18 -7 -51 -16 -73 -19 -22 -4 -72
-16 -110 -27 -151 -44 -368 -45 -415 -3 -25 23 -24 92 3 146 24 49 36 55 33
16 -3 -37 37 -82 79 -90 53 -10 206 2 292 22 49 12 103 24 119 27 17 2 54 13
83 24 30 11 70 22 90 25 21 3 57 14 82 24 25 11 64 24 88 30 44 11 59 28 48
55 -5 14 -9 14 -41 1 -19 -8 -35 -13 -35 -11 0 3 -32 -7 -71 -21 -39 -14 -83
-28 -98 -30 -14 -3 -55 -14 -90 -25 -35 -10 -78 -22 -95 -24 -17 -3 -63 -12
-103 -20 -209 -43 -323 4 -268 109 8 15 15 34 15 41 0 7 6 18 14 24 12 10 13
8 9 -8 -8 -32 16 -79 45 -89 46 -15 193 -6 283 18 46 12 95 24 108 26 13 3 54
15 90 28 36 13 71 23 76 24 6 0 34 9 63 18 47 16 52 21 47 41 -6 25 -61 102
-115 161 -24 26 -132 117 -139 117 -3 0 -22 10 -41 22 -52 31 -149 70 -195 77
-22 4 -67 11 -100 16 -70 11 -113 11 -174 -1z"/>
</g>
</svg>
